<?xml version="1.0" encoding="UTF-8"?>
<svg width="26px" height="26px" viewBox="0 0 26 26" version="1.1" xmlns="http://www.w3.org/2000/svg" xmlns:xlink="http://www.w3.org/1999/xlink">
    <!-- Generator: Sketch 50.2 (55047) - http://www.bohemiancoding.com/sketch -->
    <title>headphones</title>
    <desc>Created with Sketch.</desc>
    <defs></defs>
    <g id="headphones" stroke="none" stroke-width="1" fill="none" fill-rule="evenodd">
        <path d="M20.912164,23.01039 L18.037266,23.01039 L18.037266,21.577114 L20.912164,21.577114 C21.269976,21.577114 21.630882,21.355282 21.630882,20.860398 L23.068344,20.860398 C23.068344,22.086012 22.141158,23.01039 20.912164,23.01039 Z M6.537154,19.427174 L5.81841,19.427174 C3.359928,19.427174 1.506076,17.578782 1.506076,15.127216 C1.506076,12.675624 3.359928,10.827362 5.81841,10.827362 L6.537154,10.827362 L6.537154,19.427174 Z M5.099692,12.339678 C3.815734,12.633634 2.943512,13.716326 2.943512,15.127216 C2.943512,16.53808 3.815734,17.620824 5.099692,17.914676 L5.099692,12.339678 Z M20.193446,19.427174 L19.474702,19.427174 L19.474702,10.827362 L20.193446,10.827362 C22.652448,10.827362 24.50578,12.675624 24.50578,15.127216 C24.50578,17.578782 22.652448,19.427174 20.193446,19.427174 Z M20.912164,12.339678 L20.912164,17.914676 C22.196122,17.620824 23.068344,16.53808 23.068344,15.127216 C23.068344,13.716326 22.196122,12.633634 20.912164,12.339678 Z M15.836496,24.450036 C14.647438,24.450036 13.680316,23.485566 13.680316,22.300148 C13.680316,21.114522 14.647438,20.150052 15.836496,20.150052 C17.025554,20.150052 17.99317,21.114522 17.99317,22.300148 C17.99317,23.485566 17.025554,24.450036 15.836496,24.450036 Z M15.836496,21.583406 C15.439788,21.583406 15.117752,21.904688 15.117752,22.300148 C15.117752,22.695478 15.439788,23.016682 15.836496,23.016682 C16.233178,23.016682 16.555214,22.695478 16.555214,22.300148 C16.555214,21.904688 16.233178,21.583406 15.836496,21.583406 Z M20.912164,9.398324 L19.474702,9.398324 C19.474702,5.839548 16.572842,2.944162 13.006188,2.944162 C9.439014,2.944162 6.537154,5.839548 6.537154,9.398324 L5.099692,9.398324 C5.099692,5.049382 8.646118,1.510886 13.006188,1.510886 C17.365218,1.510886 20.912164,5.049382 20.912164,9.398324 Z" id="Combined-shape-4136" fill="#F0F0F0"></path>
    </g>
</svg>