<?xml version="1.0" standalone="no"?>
<!DOCTYPE svg PUBLIC "-//W3C//DTD SVG 20010904//EN"
 "http://www.w3.org/TR/2001/REC-SVG-20010904/DTD/svg10.dtd">
<svg version="1.0" xmlns="http://www.w3.org/2000/svg"
 width="113.000000pt" height="113.000000pt" viewBox="0 0 113.000000 113.000000"
 preserveAspectRatio="xMidYMid meet">
<metadata>
Created by potrace 1.11, written by Peter Selinger 2001-2013
</metadata>
<g transform="translate(0.000000,113.000000) scale(0.100000,-0.100000)"
fill="#000000" stroke="none">
<path d="M866 1002 c-11 -10 -6 -48 9 -68 20 -27 19 -30 -19 -53 -42 -27 -102
-27 -184 -1 -118 37 -226 19 -303 -49 -76 -67 -106 -138 -130 -308 -20 -148
-70 -231 -178 -302 -46 -29 -52 -36 -34 -39 28 -4 114 40 162 84 49 43 92 130
127 254 15 52 31 99 36 104 11 13 65 -40 90 -88 20 -39 21 -109 3 -178 -10
-40 -1 -68 41 -116 45 -53 104 -84 151 -80 42 3 55 23 22 33 -32 10 -105 81
-119 115 -12 29 -11 32 32 70 46 40 76 90 87 144 6 26 15 32 73 52 56 19 69
20 78 9 14 -16 5 -35 -16 -35 -8 0 -14 -4 -14 -10 0 -11 39 -13 64 -4 12 4 16
20 16 54 0 38 7 58 36 100 20 29 42 68 50 86 13 30 19 34 52 34 69 0 100 19
86 53 -9 22 -87 78 -115 84 -16 3 -35 15 -43 28 -15 22 -50 38 -60 27z"/>
</g>
</svg>
